HIERARCHY
ROOT Hips
{
	OFFSET 0.000000 88.474243 0.000000
	CHANNELS 6 Xposition Yposition Zposition Zrotation Yrotation Xrotation 
	JOINT Hips_Spine
	{
		OFFSET 0.000000 0.000000 0.000000
		CHANNELS 3 Zrotation Yrotation Xrotation
		JOINT Spine
		{
			OFFSET 0.005100 8.711998 -0.691000
			CHANNELS 3 Zrotation Yrotation Xrotation
			JOINT Spine1
			{
				OFFSET -0.009200 8.660301 -1.275000
				CHANNELS 3 Zrotation Yrotation Xrotation
				JOINT Spine2
				{
					OFFSET 0.006300 9.852501 -1.857000
					CHANNELS 3 Zrotation Yrotation Xrotation
					JOINT Spine2_Neck
					{
						OFFSET 0.000000 0.000000 0.000000
						CHANNELS 3 Zrotation Yrotation Xrotation
						JOINT Neck
						{
							OFFSET 0.016300 11.420799 -0.263300
							CHANNELS 3 Zrotation Yrotation Xrotation
							End Site #name: Head
							{
								OFFSET -0.019200 9.262405 2.362500
							}
						}
					}
					JOINT Spine2_LeftShoulder
					{
						OFFSET 0.000000 0.000000 0.000000
						CHANNELS 3 Zrotation Yrotation Xrotation
						JOINT LeftShoulder
						{
							OFFSET 5.616900 6.732201 -0.345700
							CHANNELS 3 Zrotation Yrotation Xrotation
							JOINT LeftArm
							{
								OFFSET 10.664888 -0.183372 -2.440700
								CHANNELS 3 Zrotation Yrotation Xrotation
								JOINT LeftForeArm
								{
									OFFSET 27.459126 0.000000 0.000000
									CHANNELS 3 Zrotation Yrotation Xrotation
									End Site #name: LeftHand
									{
										OFFSET 21.306858 0.000000 0.000000
									}
								}
							}
						}
					}
					JOINT Spine2_RightShoulder
					{
						OFFSET 0.000000 0.000000 0.000000
						CHANNELS 3 Zrotation Yrotation Xrotation
						JOINT RightShoulder
						{
							OFFSET -5.580300 6.737503 -0.344400
							CHANNELS 3 Zrotation Yrotation Xrotation
							JOINT RightArm
							{
								OFFSET -10.679335 -0.188484 -2.383900
								CHANNELS 3 Zrotation Yrotation Xrotation
								JOINT RightForeArm
								{
									OFFSET -27.503529 0.000000 0.000000
									CHANNELS 3 Zrotation Yrotation Xrotation
									End Site #name: RightHand
									{
										OFFSET -21.306808 0.000000 0.000000
									}
								}
							}
						}
					}
				}
			}
		}
	}
	JOINT Hips_LeftUpLeg
	{
		OFFSET 0.000000 0.000000 0.000000
		CHANNELS 3 Zrotation Yrotation Xrotation
		JOINT LeftUpLeg
		{
			OFFSET 6.857700 -6.739601 0.312100
			CHANNELS 3 Zrotation Yrotation Xrotation
			JOINT LeftLeg
			{
				OFFSET -0.367590 -34.731552 -4.572400
				CHANNELS 3 Zrotation Yrotation Xrotation
				End Site #name: LeftFoot
				{
					OFFSET 0.367590 -34.656704 -6.067400
				}
			}
		}
	}
	JOINT Hips_RightUpLeg
	{
		OFFSET 0.000000 0.000000 0.000000
		CHANNELS 3 Zrotation Yrotation Xrotation
		JOINT RightUpLeg
		{
			OFFSET -6.876100 -6.733299 0.301000
			CHANNELS 3 Zrotation Yrotation Xrotation
			JOINT RightLeg
			{
				OFFSET 0.347353 -34.795158 -4.515900
				CHANNELS 3 Zrotation Yrotation Xrotation
				End Site #name: RightFoot
				{
					OFFSET -0.347353 -34.589367 -6.070300
				}
			}
		}
	}
}
MOTION
Frames: 10
Frame Time: 0.041667
0.045580 0.010921 0.029825 -0.891788 -20.577369 -5.624824 -0.000000 0.000000 0.000000 -1.300355 3.400207 -2.417553 -0.380792 3.177916 1.243331 0.000000 0.000000 0.000000 0.072207 2.647802 1.461671 -5.225530 8.893111 11.296646 -0.945131 3.745841 -0.325633 -2.693695 -16.831446 2.543560 -61.928514 11.394340 44.302296 -174.483985 -66.205128 -173.715465 -0.660694 3.402382 0.284573 9.913782 8.292994 1.915787 61.771167 35.195470 33.114585 164.259091 39.772395 168.564805 -0.000000 -0.000000 -0.000000 -3.711666 -4.574830 -16.186505 3.800870 9.153274 19.159226 -0.000000 0.000000 -0.000000 -4.076633 -6.925346 -14.635950 -10.934363 -18.269221 28.268748 
-0.493461 -0.000910 0.102003 0.788655 -19.933988 -4.599886 -0.000000 -0.000000 0.000000 -0.910464 2.971250 2.253000 -0.924204 4.699088 1.359966 0.000000 0.000000 0.000000 -0.725827 4.085928 1.715512 -4.741798 6.675793 12.172925 -0.732498 4.607804 1.802739 -1.940571 -10.412062 2.010269 -56.063758 18.614869 57.707030 -177.675031 -61.612623 -170.036490 -0.558955 4.446054 1.792359 10.447488 10.964120 2.644451 44.643885 43.798024 1.690504 153.234730 38.156232 139.957727 -0.000000 -0.000000 -0.000000 -3.986715 1.711076 -17.184238 2.390225 4.644730 16.902848 -0.000000 -0.000000 -0.000000 -5.367063 -7.963482 -14.522042 -12.487868 -20.617215 31.261745 
-0.791862 -0.014599 0.886526 1.806215 -17.487219 -3.891959 -0.000000 0.000000 0.000000 -0.170365 3.105644 3.592318 -1.084168 5.478572 1.311061 0.000000 0.000000 0.000000 -0.962639 4.910633 2.032779 -6.229404 5.746180 11.288638 -0.978142 5.711087 2.037655 -3.753446 -8.212159 1.977928 -43.528069 19.758492 62.041926 177.623777 -66.638838 -168.279999 -0.982047 5.400545 1.806683 9.917432 13.521457 2.700649 42.728883 41.995733 -7.704479 158.596731 32.632663 139.458611 -0.000000 -0.000000 -0.000000 -5.396139 3.738781 -19.577362 0.540473 0.334288 17.370521 -0.000000 -0.000000 -0.000000 -6.918935 -4.377902 -15.684261 -17.985246 -24.085507 35.077836 
-0.774409 0.028746 1.917053 3.006703 -18.334903 -3.559129 -0.000000 0.000000 0.000000 -0.540004 2.848186 2.944225 -1.284191 5.508067 1.649522 0.000000 0.000000 0.000000 -1.177863 5.175385 2.193207 -6.309176 4.110514 11.169783 -1.189264 5.929648 2.198961 -5.046199 -7.593140 1.948728 -39.656725 18.525322 62.365938 173.232442 -80.415948 -166.628652 -1.127685 5.535402 1.915220 8.951410 13.978602 2.606443 41.294896 42.417533 -11.639389 163.484852 29.711670 143.272448 -0.000000 0.000000 -0.000000 -6.578313 3.717091 -19.758963 0.337504 0.279775 17.407480 -0.000000 -0.000000 -0.000000 -8.069248 -1.741049 -16.668386 -24.384448 -26.150407 39.566222 
-0.609825 0.053661 2.948282 3.919038 -18.965431 -3.390879 -0.000000 0.000000 0.000000 -0.500197 2.564118 2.679402 -1.264560 5.196663 1.849557 0.000000 0.000000 0.000000 -1.216701 5.091400 2.295550 -6.139056 3.258047 10.871949 -1.387283 5.640698 2.295017 -5.642169 -7.636485 1.937075 -37.839230 17.580882 62.530510 -179.005546 -85.779685 -176.893157 -1.238832 5.374844 2.063714 9.138248 13.771990 2.692877 41.008425 42.488321 -10.748968 164.727514 30.126169 146.119974 -0.000000 0.000000 -0.000000 -7.422633 3.545597 -19.533188 0.942616 1.527613 17.688066 -0.000000 -0.000000 -0.000000 -9.723534 -0.080900 -18.052286 -26.879160 -24.360165 43.678610 
-0.377186 0.044668 3.936845 4.507154 -19.954720 -3.653042 -0.000000 -0.000000 0.000000 -0.489725 2.280382 2.668169 -1.236134 4.734279 2.220690 0.000000 0.000000 0.000000 -1.255562 4.782613 2.458222 -5.992595 2.770194 10.610873 -1.491845 5.190665 2.609346 -5.653688 -7.991260 1.921998 -38.139580 16.382949 61.492099 -168.659911 -87.412212 170.968603 -1.335004 4.923700 2.348353 9.635366 13.511167 2.763766 40.411895 41.806417 -10.711642 165.328887 30.796160 148.293921 -0.000000 0.000000 -0.000000 -8.010983 3.978864 -18.978179 1.435138 2.331655 17.592051 -0.000000 -0.000000 -0.000000 -11.281166 1.277875 -19.864270 -28.784886 -22.424480 48.347113 
-0.129746 0.026385 4.865456 4.892191 -20.997946 -3.923933 -0.000000 -0.000000 0.000000 -0.524691 2.028464 2.634086 -1.251698 4.221772 2.650511 0.000000 0.000000 0.000000 -1.293332 4.316850 2.721622 -5.671601 2.268477 10.325303 -1.548424 4.667001 2.981878 -5.458923 -8.313690 1.873063 -38.918465 15.168832 61.951623 -149.765689 -88.423099 151.118551 -1.348507 4.430713 2.653317 10.110694 13.259136 2.771499 39.838603 40.950186 -11.413794 165.575208 31.329214 149.484696 -0.000000 0.000000 -0.000000 -8.489402 4.784297 -18.327354 1.765830 2.835071 17.539684 -0.000000 -0.000000 -0.000000 -12.126093 1.662694 -21.203745 -30.166774 -21.378621 50.847924 
0.075421 0.012412 5.733528 5.222333 -21.910640 -4.203008 -0.000000 -0.000000 0.000000 -0.572657 1.797698 2.552309 -1.300177 3.699684 3.020654 0.000000 0.000000 0.000000 -1.329612 3.791521 3.005646 -5.118714 1.551502 9.865586 -1.578963 4.131060 3.268181 -5.154975 -8.509897 1.802291 -39.197052 14.538483 63.836885 -126.714448 -88.795116 128.085978 -1.356726 3.933046 2.951609 10.436592 13.005965 2.744078 40.136466 40.350744 -11.101971 165.566164 31.977322 150.201915 -0.000000 0.000000 -0.000000 -8.738559 5.384526 -17.547350 1.931466 3.140513 17.643461 -0.000000 -0.000000 -0.000000 -11.989320 1.349773 -22.358447 -31.223819 -21.779117 50.896128 
0.210578 0.007955 6.542045 5.443337 -22.626067 -4.443311 -0.000000 -0.000000 0.000000 -0.635891 1.561532 2.524179 -1.362120 3.212112 3.311018 0.000000 0.000000 0.000000 -1.372713 3.278681 3.255735 -4.456707 0.715056 9.483899 -1.598917 3.634997 3.487633 -4.837247 -8.589215 1.735719 -38.886089 14.840660 66.198426 -108.127194 -88.808271 110.169600 -1.371526 3.457705 3.204260 10.585911 12.745703 2.695366 40.868361 40.097886 -10.120427 165.495675 32.793035 150.795202 -0.000000 0.000000 -0.000000 -8.869146 5.724173 -16.705256 1.977710 3.300566 17.861695 -0.000000 -0.000000 -0.000000 -11.023405 0.420218 -23.159924 -30.666973 -22.813217 48.108188 
0.273966 0.017314 7.298124 5.545242 -23.052369 -4.616225 -0.000000 -0.000000 0.000000 -0.700288 1.285367 2.503955 -1.411718 2.714899 3.562415 0.000000 0.000000 0.000000 -1.366744 2.754880 3.484890 -3.910508 0.157179 9.260946 -1.622127 3.117863 3.597275 -4.551562 -8.555983 1.669556 -38.381877 15.526669 68.233854 -95.484856 -88.734581 98.413259 -1.372986 2.980254 3.402630 10.700666 12.447175 2.635207 41.931102 40.054585 -8.360777 165.482932 33.675210 151.535289 -0.000000 0.000000 -0.000000 -8.900849 5.992647 -15.832643 1.978970 3.352556 17.988510 -0.000000 -0.000000 -0.000000 -9.490915 -0.858735 -23.792029 -28.587612 -23.670162 44.131253 
